<svg id="Layer_1" data-name="Layer 1" xmlns="http://www.w3.org/2000/svg" xmlns:xlink="http://www.w3.org/1999/xlink" viewBox="0 0 277 282.41"><defs><style>.cls-1{fill:url(#linear-gradient);}</style><linearGradient id="linear-gradient" x1="24.09" y1="235.64" x2="280.1" y2="87.83" gradientUnits="userSpaceOnUse"><stop offset="0" stop-color="#a6dad2"/><stop offset="1" stop-color="#9aadd9"/></linearGradient></defs><title>ArchitechLogo</title><path class="cls-1" d="M291.88,175.9l-13.6-5.3a122.18,122.18,0,0,0-.6-30.8L291,134a7.5,7.5,0,0,0,4-4.2,7.75,7.75,0,0,0-.1-5.8l-19-43.4a7.59,7.59,0,0,0-10-3.9l-13.3,5.8a117.82,117.82,0,0,0-22.2-21.3l5.3-13.5a7.57,7.57,0,0,0-4.3-9.8l-44.1-17.3a7.57,7.57,0,0,0-9.8,4.3l-5.3,13.5a122.18,122.18,0,0,0-30.8.6l-5.8-13.3a7.59,7.59,0,0,0-10-3.9L120,24.3a9.77,9.77,0,0,0-2.3.6l-17,7.8-18.5,8.1a7.5,7.5,0,0,0-4,4.2,8,8,0,0,0-.5,2.1,7.65,7.65,0,0,0,.5,4.2l5.7,13a119.38,119.38,0,0,0-21.2,22L49.08,81a7.57,7.57,0,0,0-9.8,4.3l-17.1,44a7.89,7.89,0,0,0-.5,3,7.54,7.54,0,0,0,4.8,7.3l13.6,5.3a122.18,122.18,0,0,0,.6,30.8l-13.3,5.8a7.5,7.5,0,0,0-4,4.2,7.75,7.75,0,0,0,.1,5.8l9.9,22.6-5.1,2.5L19.68,228l13.7-.8,108.3-54.4a20.48,20.48,0,0,0,13.7,7.5V291.4l6,11.1,6.1-11.1v-14c3.1-.2,6.2-.5,9.3-1l5.8,13.3a7.59,7.59,0,0,0,10,3.9l5.6-2.5a9.77,9.77,0,0,0,2.3-.6l17-7.8,18.5-8.1a7.5,7.5,0,0,0,4-4.2,8,8,0,0,0,.5-2.1,7.65,7.65,0,0,0-.5-4.2l-5.7-13a119.38,119.38,0,0,0,21.2-22l13.6,5.3a7.57,7.57,0,0,0,9.8-4.3l17.3-44.1a7.89,7.89,0,0,0,.5-3A7.46,7.46,0,0,0,291.88,175.9Zm-154.6-15.8a6.6,6.6,0,0,0,.1,1.4L112,174.8a47.25,47.25,0,0,1,44.1-64.6,47.4,47.4,0,0,1,11.4,93.4V178A20.57,20.57,0,0,0,178,160.2a20.12,20.12,0,0,0-4.6-12.9l7-10.1a6,6,0,0,0-9.9-6.9l-7.2,10.3a21.21,21.21,0,0,0-5.7-.8A20.31,20.31,0,0,0,137.28,160.1Zm20.4,8.3a8.3,8.3,0,1,1,8.3-8.3A8.41,8.41,0,0,1,157.68,168.4Zm109.9,48.8-12.1-4.7a7.61,7.61,0,0,0-9.1,2.9,104.29,104.29,0,0,1-26,27,7.58,7.58,0,0,0-3.1,6.7,8,8,0,0,0,.6,3l5,11.5-15.1,7-14.3,6.2-5.2-11.9a7.48,7.48,0,0,0-8.4-4.4,102.69,102.69,0,0,1-12.4,1.7V218.9a62.58,62.58,0,1,0-74-61.5,63.5,63.5,0,0,0,4.9,24.3l-51.5,25.6-6.6-15,11.9-5.2a7.54,7.54,0,0,0,4.4-8.4,102.78,102.78,0,0,1-.7-37.5,7.61,7.61,0,0,0-4.7-8.3l-4.9-1.9a11.35,11.35,0,0,0-2.3-1.5l-4.7-1.8,11.6-29.5L63,102.9a7.61,7.61,0,0,0,9.1-2.9,104.29,104.29,0,0,1,26-27,7.58,7.58,0,0,0,3.1-6.7,8,8,0,0,0-.6-3l-5-11.5,15.1-7L125,38.6l5.2,11.9a7.48,7.48,0,0,0,8.4,4.4,102.78,102.78,0,0,1,37.5-.7,7.61,7.61,0,0,0,8.3-4.7l4.7-12,30,11.7-4.7,12a7.61,7.61,0,0,0,2.9,9.1,104.29,104.29,0,0,1,27,26,7.62,7.62,0,0,0,9.2,2.5l11.9-5.2,12.9,29.5-11.9,5.2a7.54,7.54,0,0,0-4.4,8.4,102.78,102.78,0,0,1,.7,37.5,7.61,7.61,0,0,0,4.7,8.3l4.9,1.9a11.35,11.35,0,0,0,2.3,1.5l4.7,1.8Z" transform="translate(-19.68 -20.09)"/></svg>